<?xml version="1.0" encoding="utf-8"?>
<!-- Generator: Adobe Illustrator 15.0.0, SVG Export Plug-In . SVG Version: 6.00 Build 0)  -->
<!DOCTYPE svg PUBLIC "-//W3C//DTD SVG 1.1//EN" "http://www.w3.org/Graphics/SVG/1.1/DTD/svg11.dtd">
<svg version="1.1" id="Layer_1" xmlns="http://www.w3.org/2000/svg" xmlns:xlink="http://www.w3.org/1999/xlink" x="0px" y="0px"
	 width="336.923px" height="125.6px" viewBox="0 0 336.923 125.6" enable-background="new 0 0 336.923 125.6" xml:space="preserve">
<g>
	<g>
		<path fill="#110F10" d="M0.361,125.365V72.514c0-9.9,7.739-18.148,17.639-18.148h300.923c9.9,0,18.438,8.248,18.438,18.148v52.852
			"/>
	</g>
	<g>
		<g>
			<g>
				<text transform="matrix(1 0.0014 -0.0014 1 35.4121 117.5156)" fill="#DF4572" font-family="'Helvetica'" font-size="14.2882">Profile</text>
			</g>
			<g>
				<g>
					<path fill="#DF4572" d="M55.625,101.602c-10.635-0.016-19.275-8.68-19.262-19.317c0.017-10.639,8.684-19.277,19.317-19.267
						c10.641,0.018,19.281,8.682,19.265,19.317C74.929,92.97,66.263,101.613,55.625,101.602L55.625,101.602z M55.677,65.713
						c-9.153-0.006-16.603,7.418-16.621,16.577c-0.009,9.153,7.424,16.608,16.572,16.617c9.158,0.011,16.614-7.423,16.622-16.577
						C72.265,73.184,64.83,65.732,55.677,65.713L55.677,65.713z"/>
				</g>
				<g>
					<path fill="#DF4572" d="M66.492,90.276H44.957c0,0-0.989-3.319,2.245-4.484c0,0,5.291-1.438,5.291-2.962
						c0,0,0.24,0.025,0.24-0.422c0,0,0.13-0.676-0.148-2.001c0,0-0.81-0.181-0.81-0.896c0,0-0.538-0.631-0.179-2.424
						c0,0-0.539-2.781,0.45-4.217c0,0,1.076-0.988,1.616-0.988c0,0,0.179-0.449,1.706-0.449c0,0,2.061-0.178,2.061,0.539
						c0,0,1.796,0.627,1.796,1.258c0,0,0.896,1.166,0.538,3.857c0,0,0.238,1.941-0.57,2.66c0,0-0.371,0.637-0.64,0.637
						c0,0-0.134,1.451,0,2.087c0,0-0.045,0.27,0.313,0.181c0,0,0.807,1.881,5.832,3.318C64.697,85.971,66.492,86.689,66.492,90.276z
						"/>
				</g>
			</g>
		</g>
		<g>
			<g>
				
					<text transform="matrix(0.9999 0.0171 -0.0171 0.9999 244.1221 118.1416)" fill="#A19C98" font-family="'Helvetica'" font-size="14.2883">Progress</text>
			</g>
			<g>
				
					<rect x="251.804" y="81.269" transform="matrix(0.9999 0.0157 -0.0157 0.9999 1.4359 -4.0204)" fill="#A19C98" width="9.952" height="16.349"/>
				
					<rect x="266.086" y="72.963" transform="matrix(0.9999 0.0157 -0.0157 0.9999 1.3742 -4.2451)" fill="#A19C98" width="9.952" height="24.88"/>
				
					<rect x="280.391" y="61.814" transform="matrix(0.9999 0.0157 -0.0157 0.9999 1.2902 -4.4703)" fill="#A19C98" width="9.952" height="36.253"/>
			</g>
		</g>
	</g>
	<g>
		<g>
			<g>
				<linearGradient id="SVGID_1_" gradientUnits="userSpaceOnUse" x1="168.4619" y1="11.6133" x2="168.4619" y2="82.8265">
					<stop  offset="0" style="stop-color:#1A1A1A"/>
					<stop  offset="1" style="stop-color:#010101"/>
				</linearGradient>
				<circle fill="url(#SVGID_1_)" cx="168.461" cy="49.76" r="49.759"/>
			</g>
			<g id="_x33_NHvmY_2_">
				<g>
					<path fill-rule="evenodd" clip-rule="evenodd" fill="#A19C98" d="M176.406,17.863c-10.971-1.033-20.062,2.488-26.358,8.785
						c-4.375,4.375-8.354,11.029-8.312,18.521c0.073,12.684,9.626,23.5,22.086,24.461c8.555,0.658,14.998-2.686,18.282-8.074
						c3.412-5.6,4.173-17.51-4.511-18.523c-1.351,1.914,0.888,3.537,1.188,5.697c1.455,10.518-9.797,15.957-18.997,11.639
						c-7.59-3.564-10.713-15.121-6.886-23.985c0.16-0.368,0.788-0.631,0.713-0.473c0.168-0.343-0.121-0.724,0-0.951
						c1.591-2.989,4.225-5.753,7.36-7.597c4.723-2.779,14.12-4.375,21.372-1.427c0.239,0.099,0.286,0.646,0.475,0.712
						c0.131,0.049,0.58-0.39,0.949-0.238c3.202,1.334,5.691,3.466,7.837,5.701c0.558,0.583,1.933,1.099,1.425,2.137
						c0.624-0.598,0.798,0.595,1.423,0.712c2.798,5.624,5.372,8.901,4.751,17.573c-0.784,10.922-8.651,19.916-16.859,23.984
						c-0.223,0.108-0.236-0.082-0.714,0.237c-2.059,1.369-5.942,2.471-9.022,2.85c-0.282,0.032-0.342-0.442-0.477-0.478
						c0.359,0.092-0.896,0.665-1.423,0.713c-2.776,0.26-5.498-0.071-7.602-0.477c-1.032-0.195-2.462-0.291-2.611-0.947
						c-2.174,0.102-3.76-1.111-5.698-2.137c-2.333-1.235-5.153-2.754-7.124-5.225c-1.042-1.307-3.688-4.012-4.988-6.175
						c-1.366-2.272-2.466-5.108-3.324-7.837c-0.072-0.231-0.027-0.529,0-0.475c-1.357-2.678-1.954-7.748-1.661-12.11
						c0.549-8.21,5.003-15.748,10.683-20.657C154.496,18.521,165.082,14.905,176.406,17.863z"/>
				</g>
			</g>
		</g>
		<g>
			<text transform="matrix(1 0.0014 -0.0014 1 144.2373 119.0605)" fill="#A19C98" font-family="'Helvetica'" font-size="14.2882">Healing</text>
		</g>
	</g>
</g>
</svg>
